<?xml version="1.0" encoding="utf-8"?>
<!-- Generator: Adobe Illustrator 21.1.0, SVG Export Plug-In . SVG Version: 6.00 Build 0)  -->
<svg version="1.1" id="Слой_1" xmlns="http://www.w3.org/2000/svg" xmlns:xlink="http://www.w3.org/1999/xlink" x="0px" y="0px"
	 viewBox="0 0 325 60" style="enable-background:new 0 0 325 60;" xml:space="preserve">
<style type="text/css">
	.st0{fill:#0190D4;}
</style>
<g>
	<path class="st0" d="M69,2.8C71.5,2.3,74.9,2,79.5,2c5,0,8.7,1.1,11.1,3.1c2.2,1.8,3.7,4.8,3.7,8.3c0,3.6-1.1,6.5-3.2,8.5
		C88.3,24.7,84,26,79.2,26c-1.3,0-2.4-0.1-3.4-0.3V40H69V2.8z M75.8,20.3c0.9,0.3,2,0.3,3.4,0.3c5.2,0,8.3-2.6,8.3-6.9
		c0-4.2-2.9-6.4-7.7-6.4c-1.9,0-3.2,0.2-4,0.3V20.3z"/>
	<path class="st0" d="M98.6,2.8C101.2,2.3,105,2,109,2c5.4,0,9.1,0.9,11.6,3c2.1,1.7,3.2,4.4,3.2,7.6c0,4.9-3.3,8.2-6.9,9.4v0.2
		c2.7,1,4.4,3.6,5.3,7.3c1.2,4.7,2.2,9.1,3,10.5h-7.1c-0.6-1.1-1.5-4.2-2.5-8.9c-1.1-4.9-2.9-6.5-6.8-6.6h-3.5V40h-6.8V2.8z
		 M105.4,19.4h4.1c4.6,0,7.5-2.5,7.5-6.2c0-4.1-2.9-6-7.3-6c-2.2,0-3.6,0.2-4.3,0.3V19.4z"/>
	<path class="st0" d="M135.7,2.3V40h-6.9V2.3H135.7z"/>
	<path class="st0" d="M173.8,24.6c-0.2-4.9-0.5-10.8-0.4-15.8h-0.2c-1.2,4.6-2.8,9.7-4.5,14.4l-5.5,16.4h-5.3l-5-16.1
		c-1.5-4.8-2.8-10-3.8-14.7h-0.1c-0.2,4.9-0.4,10.9-0.7,16.1L147.4,40h-6.4l2.5-37.7h9.1l4.9,15.2c1.3,4.4,2.5,8.9,3.5,13.1h0.2
		c1-4.1,2.3-8.7,3.8-13.2l5.2-15.1h9l2.2,37.7h-6.7L173.8,24.6z"/>
	<path class="st0" d="M186.5,2.8C189,2.3,192.5,2,197,2c5,0,8.7,1.1,11.1,3.1c2.2,1.8,3.7,4.8,3.7,8.3c0,3.6-1.1,6.5-3.2,8.5
		c-2.8,2.7-7.1,4.1-11.9,4.1c-1.3,0-2.4-0.1-3.4-0.3V40h-6.8V2.8z M193.3,20.3c0.9,0.3,2,0.3,3.4,0.3c5.2,0,8.3-2.6,8.3-6.9
		c0-4.2-2.9-6.4-7.7-6.4c-1.9,0-3.2,0.2-4,0.3V20.3z"/>
	<path class="st0" d="M216.1,2.8c2.6-0.5,6.4-0.8,10.4-0.8c5.4,0,9.1,0.9,11.6,3c2.1,1.7,3.2,4.4,3.2,7.6c0,4.9-3.3,8.2-6.9,9.4v0.2
		c2.7,1,4.4,3.6,5.3,7.3c1.2,4.7,2.2,9.1,3,10.5h-7.1c-0.6-1.1-1.5-4.2-2.5-8.9c-1.1-4.9-2.9-6.5-6.8-6.6H223V40h-6.8V2.8z
		 M223,19.4h4.1c4.6,0,7.5-2.5,7.5-6.2c0-4.1-2.9-6-7.3-6c-2.2,0-3.6,0.2-4.3,0.3V19.4z"/>
	<path class="st0" d="M267.4,23.3h-14.2v11.1h15.9V40h-22.8V2.3h22v5.7h-15.1v9.7h14.2V23.3z"/>
	<path class="st0" d="M273.4,32.5c2.2,1.3,5.6,2.4,9.1,2.4c4.4,0,6.8-2.1,6.8-5.2c0-2.9-1.9-4.5-6.7-6.3c-6.3-2.2-10.2-5.5-10.2-11
		c0-6.2,5.2-10.9,13.4-10.9c4.1,0,7.1,0.9,9,1.9l-1.6,5.5c-1.4-0.7-4-1.8-7.6-1.8c-4.4,0-6.2,2.3-6.2,4.5c0,2.9,2.2,4.3,7.2,6.2
		c6.6,2.5,9.7,5.8,9.7,11.2c0,6.1-4.6,11.4-14.3,11.4c-4,0-8.2-1.1-10.2-2.4L273.4,32.5z"/>
	<path class="st0" d="M300.8,32.5c2.2,1.3,5.6,2.4,9.1,2.4c4.4,0,6.8-2.1,6.8-5.2c0-2.9-1.9-4.5-6.7-6.3c-6.3-2.2-10.2-5.5-10.2-11
		c0-6.2,5.2-10.9,13.4-10.9c4.1,0,7.1,0.9,9,1.9l-1.6,5.5c-1.4-0.7-4-1.8-7.6-1.8c-4.4,0-6.2,2.3-6.2,4.5c0,2.9,2.2,4.3,7.2,6.2
		c6.6,2.5,9.7,5.8,9.7,11.2c0,6.1-4.6,11.4-14.3,11.4c-4,0-8.2-1.1-10.2-2.4L300.8,32.5z"/>
</g>
<g>
	<path class="st0" d="M70.6,50.4v3.2H74v-3.2h1.5v8.1H74v-3.6h-3.4v3.6h-1.5v-8.1H70.6z"/>
	<path class="st0" d="M88.1,54.4c0,2.7-1.6,4.3-3.9,4.3c-2.3,0-3.7-1.8-3.7-4.1c0-2.5,1.6-4.2,3.8-4.2
		C86.7,50.3,88.1,52.1,88.1,54.4z M82,54.5c0,1.7,0.8,3,2.2,3c1.4,0,2.2-1.3,2.2-3c0-1.5-0.8-3-2.2-3C82.8,51.5,82,52.8,82,54.5z"/>
	<path class="st0" d="M93.1,50.5c0.5-0.1,1.3-0.2,2.2-0.2c1.1,0,1.8,0.1,2.3,0.5c0.5,0.3,0.8,0.8,0.8,1.5c0,0.7-0.5,1.4-1.3,1.7v0
		c0.9,0.2,1.6,0.9,1.6,2c0,0.7-0.3,1.3-0.8,1.7c-0.6,0.5-1.5,0.7-3,0.7c-0.8,0-1.4-0.1-1.8-0.1V50.5z M94.5,53.7h0.8
		c1,0,1.6-0.5,1.6-1.2c0-0.8-0.6-1.1-1.5-1.1c-0.4,0-0.7,0-0.8,0.1V53.7z M94.5,57.4c0.2,0,0.4,0,0.8,0c0.9,0,1.8-0.3,1.8-1.3
		c0-0.9-0.8-1.3-1.8-1.3h-0.7V57.4z"/>
	<path class="st0" d="M110.8,54.4c0,2.7-1.6,4.3-3.9,4.3c-2.3,0-3.7-1.8-3.7-4.1c0-2.5,1.6-4.2,3.9-4.2
		C109.4,50.3,110.8,52.1,110.8,54.4z M104.8,54.5c0,1.7,0.8,3,2.2,3c1.4,0,2.2-1.3,2.2-3c0-1.5-0.8-3-2.2-3
		C105.5,51.5,104.8,52.8,104.8,54.5z"/>
	<path class="st0" d="M121.6,58.3c-0.3,0.2-1.1,0.4-2.1,0.4c-2.6,0-4.1-1.6-4.1-4.1c0-2.7,1.9-4.3,4.3-4.3c1,0,1.7,0.2,2,0.4
		l-0.3,1.2c-0.4-0.2-0.9-0.3-1.6-0.3c-1.6,0-2.8,1-2.8,3c0,1.8,1,2.9,2.8,2.9c0.6,0,1.2-0.1,1.6-0.3L121.6,58.3z"/>
	<path class="st0" d="M128.4,51.7h-2.3v-1.2h6.1v1.2h-2.3v6.8h-1.5V51.7z"/>
	<path class="st0" d="M138.3,50.4v2.9c0,1.3,0,2.5-0.1,3.6l0,0c0.4-0.9,0.9-1.9,1.5-2.8l2.1-3.6h1.5v8.1h-1.4v-2.9
		c0-1.3,0-2.3,0.1-3.4h0c-0.4,0.9-0.9,1.9-1.4,2.8l-2.1,3.4h-1.6v-8.1H138.3z"/>
	<path class="st0" d="M161.1,50.4v8.1h-1.5v-6.9h-3.3v6.9h-1.5v-8.1H161.1z"/>
	<path class="st0" d="M166.6,50.5c0.5-0.1,1.3-0.2,2.3-0.2c1.1,0,1.9,0.2,2.4,0.7c0.5,0.4,0.8,1,0.8,1.8c0,0.8-0.2,1.4-0.7,1.8
		c-0.6,0.6-1.5,0.9-2.6,0.9c-0.3,0-0.5,0-0.7-0.1v3.1h-1.5V50.5z M168,54.3c0.2,0.1,0.4,0.1,0.7,0.1c1.1,0,1.8-0.6,1.8-1.5
		c0-0.9-0.6-1.4-1.6-1.4c-0.4,0-0.7,0-0.9,0.1V54.3z"/>
	<path class="st0" d="M178.3,50.4v2.9c0,1.3,0,2.5-0.1,3.6l0,0c0.4-0.9,0.9-1.9,1.5-2.8l2.1-3.6h1.5v8.1H182v-2.9
		c0-1.3,0-2.3,0.1-3.4h0c-0.4,0.9-0.9,1.9-1.4,2.8l-2.1,3.4H177v-8.1H178.3z"/>
	<path class="st0" d="M195.6,55.2c0-1-0.1-2.3-0.1-3.4h0c-0.3,1-0.6,2.1-1,3.1l-1.2,3.5h-1.1l-1.1-3.5c-0.3-1-0.6-2.1-0.8-3.1h0
		c0,1.1-0.1,2.3-0.1,3.4l-0.2,3.3h-1.4l0.5-8.1h1.9l1.1,3.3c0.3,0.9,0.5,1.9,0.7,2.8h0c0.2-0.9,0.5-1.9,0.8-2.8l1.1-3.2h1.9l0.5,8.1
		h-1.4L195.6,55.2z"/>
	<path class="st0" d="M209.6,54.4c0,2.7-1.6,4.3-3.9,4.3c-2.3,0-3.7-1.8-3.7-4.1c0-2.5,1.6-4.2,3.8-4.2
		C208.2,50.3,209.6,52.1,209.6,54.4z M203.5,54.5c0,1.7,0.8,3,2.2,3c1.4,0,2.2-1.3,2.2-3c0-1.5-0.8-3-2.2-3
		C204.3,51.5,203.5,52.8,203.5,54.5z"/>
	<path class="st0" d="M214.6,50.5c0.5-0.1,1.3-0.2,2.3-0.2c1.1,0,1.9,0.2,2.4,0.7c0.5,0.4,0.8,1,0.8,1.8c0,0.8-0.2,1.4-0.7,1.8
		c-0.6,0.6-1.5,0.9-2.6,0.9c-0.3,0-0.5,0-0.7-0.1v3.1h-1.5V50.5z M216,54.3c0.2,0.1,0.4,0.1,0.7,0.1c1.1,0,1.8-0.6,1.8-1.5
		c0-0.9-0.6-1.4-1.6-1.4c-0.4,0-0.7,0-0.9,0.1V54.3z"/>
	<path class="st0" d="M230.7,58.3c-0.3,0.2-1.1,0.4-2.1,0.4c-2.6,0-4.1-1.6-4.1-4.1c0-2.7,1.9-4.3,4.3-4.3c1,0,1.7,0.2,2,0.4
		l-0.3,1.2c-0.4-0.2-0.9-0.3-1.6-0.3c-1.6,0-2.8,1-2.8,3c0,1.8,1,2.9,2.8,2.9c0.6,0,1.2-0.1,1.6-0.3L230.7,58.3z"/>
	<path class="st0" d="M237.2,50.4v3.5h0.2l2.5-3.5h1.8l-2.9,3.6c1.2,0.2,1.7,1,2,2c0.3,0.9,0.5,1.7,0.9,2.4h-1.6
		c-0.3-0.6-0.5-1.2-0.7-1.8c-0.3-1-0.8-1.7-1.9-1.7h-0.3v3.5h-1.5v-8.1H237.2z"/>
	<path class="st0" d="M253.3,54.4c0,2.7-1.6,4.3-3.9,4.3c-2.3,0-3.7-1.8-3.7-4.1c0-2.5,1.6-4.2,3.8-4.2
		C251.9,50.3,253.3,52.1,253.3,54.4z M247.3,54.5c0,1.7,0.8,3,2.2,3c1.4,0,2.2-1.3,2.2-3c0-1.5-0.8-3-2.2-3
		C248.1,51.5,247.3,52.8,247.3,54.5z"/>
	<path class="st0" d="M262.9,50.4v1.2h-3.1v6.9h-1.5v-8.1H262.9z"/>
	<path class="st0" d="M274.4,54.4c0,2.7-1.6,4.3-3.9,4.3c-2.3,0-3.7-1.8-3.7-4.1c0-2.5,1.6-4.2,3.8-4.2
		C273,50.3,274.4,52.1,274.4,54.4z M268.3,54.5c0,1.7,0.8,3,2.2,3c1.4,0,2.2-1.3,2.2-3c0-1.5-0.8-3-2.2-3
		C269.1,51.5,268.3,52.8,268.3,54.5z"/>
	<path class="st0" d="M287,50.4v3.5h0.2l2.5-3.5h1.8l-2.9,3.6c1.2,0.2,1.7,1,2,2c0.3,0.9,0.5,1.7,0.9,2.4h-1.6
		c-0.3-0.6-0.5-1.2-0.7-1.8c-0.3-1-0.8-1.7-1.9-1.7H287v3.5h-1.5v-8.1H287z"/>
	<path class="st0" d="M296.2,50.5c0.5-0.1,1.3-0.2,2.3-0.2c1.1,0,1.9,0.2,2.4,0.7c0.5,0.4,0.8,1,0.8,1.8c0,0.8-0.2,1.4-0.7,1.8
		c-0.6,0.6-1.5,0.9-2.6,0.9c-0.3,0-0.5,0-0.7-0.1v3.1h-1.5V50.5z M297.7,54.3c0.2,0.1,0.4,0.1,0.7,0.1c1.1,0,1.8-0.6,1.8-1.5
		c0-0.9-0.6-1.4-1.6-1.4c-0.4,0-0.7,0-0.9,0.1V54.3z"/>
	<path class="st0" d="M307.4,56.2l-0.7,2.3h-1.5l2.6-8.1h1.9l2.6,8.1h-1.6l-0.7-2.3H307.4z M309.7,55.1l-0.6-2
		c-0.2-0.5-0.3-1-0.4-1.5h0c-0.1,0.5-0.3,1-0.4,1.5l-0.6,2H309.7z"/>
	<path class="st0" d="M316.4,58.5c0.2-0.2,0.3-0.5,0.4-0.8c0.3-0.9,0.5-2,1.2-2.6c0.2-0.2,0.4-0.3,0.7-0.4v0c-0.9-0.2-1.7-0.8-1.7-2
		c0-0.7,0.3-1.3,0.8-1.7c0.6-0.4,1.5-0.6,2.5-0.6c0.8,0,1.6,0.1,2.1,0.2v8h-1.5v-3.3h-0.6c-0.4,0-0.7,0.1-1,0.3
		c-0.5,0.5-0.8,1.6-1,2.3c-0.1,0.2-0.2,0.4-0.3,0.6H316.4z M320.9,51.6c-0.2,0-0.4-0.1-0.9-0.1c-0.9,0-1.6,0.4-1.6,1.3
		c0,0.9,0.8,1.3,1.7,1.3c0.3,0,0.6,0,0.8,0V51.6z"/>
</g>
<g>
	<path class="st0" d="M57.9,59.5c-10.2,0-20.4,0.5-30.5-0.1C13,58.4,1.1,45.2,1,31C0.8,15.4,11.7,2.4,26.5,0.6
		c14.7-1.8,28.8,7.9,32.4,22.3c0.4,1.7,1,3.4,1,5.2c0.1,7.4,0,14.9,0,23.4c-7.9-5.6-15-10.6-22.1-15.6c-1.5-1.1-1-2.1-0.6-3.5
		c1.2-4.4-0.2-7.9-4.7-9.3c-3.4-1.1-6.9-0.2-8.5,3.3c-2.1,4.4-0.5,7.8,3.5,10.5c5.2,3.4,10.3,7.2,15.4,10.8
		c5.1,3.6,10.2,7.1,15.3,10.7C58.1,58.8,58,59.1,57.9,59.5z"/>
</g>
</svg>
